<?xml version="1.0" encoding="UTF-8"?>
<svg width="24px" height="25px" viewBox="0 0 24 25" version="1.1" xmlns="http://www.w3.org/2000/svg" xmlns:xlink="http://www.w3.org/1999/xlink">
    <title>Elements/Corteva Logo/white</title>
    <defs>
        <polygon id="path-1" points="0 0.0270833333 24 0.0270833333 24 24.8782738 0 24.8782738"></polygon>
    </defs>
    <g id="Elements/Corteva-Logo/white" stroke="none" stroke-width="1" fill="none" fill-rule="evenodd">
        <g id="Group-3-Copy-2">
            <mask id="mask-2" fill="white">
                <use xlink:href="#path-1"></use>
            </mask>
            <g id="Clip-2"></g>
            <path d="M14.4001581,0.257217262 C15.5004216,0.48891369 16.5443497,0.879092262 17.5129725,1.39918155 C17.5389844,1.41316964 17.5654275,1.4265625 17.5912958,1.44084821 C19.0190802,2.22120536 20.2771401,3.28921131 21.2917509,4.57269345 L21.2917509,4.57269345 L14.5665772,4.57269345 L12.3749605,6.8421875 L22.7162299,6.8421875 C23.1993916,7.83162202 23.5599665,8.89590774 23.7742419,10.0155506 L23.7742419,10.0155506 L12.1371162,10.0155506 L14.3287329,12.2850446 L24.0010204,12.2850446 C24.0017389,12.3386161 24.0049006,12.3914435 24.0049006,12.4451637 C24.0049006,13.4844494 23.8800144,14.4935268 23.6479186,15.4585565 L23.6479186,15.4585565 L17.3935473,15.4585565 L21.6401102,19.855878 C21.028182,20.7085565 20.3120623,21.4759673 19.5130204,22.1411458 L19.5130204,22.1411458 L8.55651737,10.7959077 L6.90037365,12.5107887 L17.5073677,23.494122 C16.5091401,24.0295387 15.4298587,24.4247768 14.2923737,24.6530506 L14.2923737,24.6530506 L4.73318802,14.7548363 L3.07704431,16.4697173 L11.1715114,24.8511161 C6.90914012,24.552753 3.25769102,21.9542411 1.36528383,18.2421875 C1.10530778,17.7323661 0.877667066,17.2023065 0.687247904,16.653497 C0.494529341,16.0987351 0.337882635,15.5261161 0.222194012,14.937872 L0.222194012,14.937872 Z M11.324824,0.0270089286 L-1.43712583e-05,11.753497 C0.334692216,5.43504464 5.22278802,0.3734375 11.324824,0.0270089286 L11.324824,0.0270089286 Z" id="Combined-Shape" fill="#FFFFFF" mask="url(#mask-2)"></path>
        </g>
    </g>
</svg>